<?xml version="1.0" encoding="UTF-8"?>
<svg id="Livello_2" data-name="Livello 2" xmlns="http://www.w3.org/2000/svg" viewBox="0 0 22.16 22.16">
  <defs>
    <style>
      .cls-1 {
        stroke-width: 0px;
      }
    </style>
  </defs>
  <g id="Livello_1-2" data-name="Livello 1">
    <g>
      <path class="cls-1" d="M11.73,9.8c.17-.18.32-.38.5-.53.48-.41,1.05-.49,1.65-.42.54.06.95.32,1.18.82.09.21.16.43.2.66.04.25.05.5.06.76,0,1.05,0,2.09,0,3.14v.13h-1.57c0-.05,0-.1,0-.14,0-1.02,0-2.03,0-3.05,0-.2-.04-.41-.11-.6-.2-.62-.99-.62-1.32-.32-.31.28-.43.63-.44,1.04,0,.99,0,1.97,0,2.96,0,.04,0,.08,0,.13h-1.57c0-.07,0-.14,0-.21,0-.98,0-1.95,0-2.93,0-.21-.03-.43-.1-.64-.12-.37-.43-.57-.82-.54-.46.03-.78.31-.89.8-.04.17-.06.35-.06.52,0,.95,0,1.9,0,2.86,0,.04,0,.08,0,.13h-1.57v-5.39h1.57v.85c.09-.12.16-.21.23-.3.55-.66,1.59-.89,2.36-.51.29.14.49.37.64.65.03.06.06.11.08.15Z"/>
      <path class="cls-1" d="M8.07,21.1h-.11c-2.13,0-4.26,0-6.39,0-.33,0-.51-.18-.51-.51,0-2.1,0-4.19,0-6.29,0-.06,0-.11,0-.17,0,0-.01,0-.02,0-.05.15-.11.29-.16.44-.05.15-.14.26-.3.31-.16.05-.31.02-.43-.09-.13-.12-.18-.27-.13-.43.1-.31.22-.62.34-.94.23-.63.46-1.26.69-1.89.01-.03.02-.06.03-.1.06-.2.21-.33.4-.34.22-.01.38.09.46.3.17.46.34.93.51,1.39.18.49.36.99.54,1.48.06.18.04.34-.09.48-.12.13-.28.17-.45.12-.14-.04-.24-.13-.29-.27-.06-.17-.12-.33-.2-.5v6.11h6.07s0,0,0-.01c-.16-.06-.33-.12-.49-.18-.18-.07-.3-.25-.28-.44.02-.21.15-.37.36-.4.09-.01.2,0,.3.04.89.32,1.78.65,2.67.98.05.02.1.04.15.05.2.06.33.22.33.42,0,.19-.11.37-.31.44-.95.35-1.91.69-2.86,1.04-.3.11-.57-.05-.62-.35-.03-.2.09-.4.29-.47.16-.06.33-.12.49-.19,0,0,0,0,0-.02Z"/>
      <path class="cls-1" d="M19.23,10.07v.76h-2.85c-.04-.43.02-.83.26-1.2.22-.34.53-.58.85-.81.24-.17.48-.35.66-.59.14-.19.18-.4.13-.63-.06-.29-.33-.45-.66-.39-.32.05-.6.19-.85.4-.15-.19-.31-.38-.47-.57.32-.27.68-.45,1.08-.52.33-.06.65-.08.98.02.45.14.76.43.84.91.07.49-.05.94-.41,1.3-.23.23-.51.41-.76.62-.18.15-.36.3-.54.46-.06.06-.09.15-.14.25h1.87Z"/>
      <path class="cls-1" d="M1.95,4.66c0,.26,0,.53,0,.79,0,.27-.19.47-.44.47-.25,0-.45-.2-.45-.47,0-.53,0-1.06,0-1.59,0-.27.2-.47.45-.47.25,0,.44.21.44.47,0,.26,0,.53,0,.79Z"/>
      <path class="cls-1" d="M17.51,21.1c-.26,0-.52,0-.78,0-.27,0-.48-.19-.48-.45,0-.25.2-.44.47-.44.53,0,1.06,0,1.58,0,.23,0,.41.14.46.35.05.2-.05.41-.23.49-.07.03-.15.05-.22.05-.26,0-.53,0-.79,0Z"/>
      <path class="cls-1" d="M1.95.89c0,.07,0,.14,0,.2,0,.27-.19.46-.45.47-.23,0-.43-.19-.44-.44,0-.22,0-.45,0-.67,0-.26.2-.44.46-.44.21,0,.42,0,.63,0,.27,0,.47.2.46.45,0,.25-.2.43-.46.44-.06,0-.13,0-.2,0Z"/>
      <path class="cls-1" d="M21.27.89c-.08,0-.14,0-.21,0-.25,0-.44-.19-.45-.43,0-.25.18-.45.43-.46.23,0,.46,0,.69,0,.25.01.43.2.43.46,0,.21,0,.41,0,.62,0,.27-.19.47-.44.47-.25,0-.44-.19-.45-.46,0-.06,0-.13,0-.2Z"/>
      <path class="cls-1" d="M21.27,20.21c0-.08,0-.14,0-.21.01-.27.2-.46.46-.45.25,0,.43.2.43.47,0,.21,0,.41,0,.62,0,.27-.19.46-.46.46-.21,0-.42,0-.63,0-.26,0-.45-.18-.46-.43,0-.25.17-.44.43-.46.07,0,.14,0,.23,0Z"/>
      <path class="cls-1" d="M22.16,7.2c0,.2,0,.4,0,.6,0,.27-.19.47-.44.48-.25,0-.44-.19-.45-.46,0-.23,0-.46,0-.69,0-.18,0-.35,0-.53,0-.24.14-.41.36-.45.19-.04.4.05.48.24.03.07.04.14.05.21,0,.2,0,.41,0,.61Z"/>
      <path class="cls-1" d="M14.96.89c-.2,0-.4,0-.6,0-.27,0-.47-.19-.47-.45,0-.25.2-.44.46-.44.41,0,.82,0,1.23,0,.26,0,.46.2.46.45,0,.25-.2.44-.46.44-.21,0-.41,0-.62,0Z"/>
      <path class="cls-1" d="M22.16,3.85c0,.2,0,.4,0,.6,0,.26-.18.46-.43.47-.24,0-.45-.18-.45-.44,0-.43,0-.86,0-1.29,0-.24.22-.43.45-.42.24,0,.43.2.43.44,0,.21,0,.43,0,.64Z"/>
      <path class="cls-1" d="M8.26.89c-.2,0-.4,0-.6,0-.27,0-.47-.19-.47-.44,0-.25.2-.45.48-.45.4,0,.8,0,1.2,0,.27,0,.48.2.47.45,0,.25-.21.44-.48.44-.2,0-.4,0-.6,0Z"/>
      <path class="cls-1" d="M22.16,10.56c0,.21,0,.41,0,.62,0,.24-.18.44-.42.45-.23.01-.42-.15-.46-.39,0-.03,0-.06,0-.09,0-.4,0-.8,0-1.2,0-.14.04-.27.15-.36.14-.12.3-.15.47-.07.16.08.25.21.26.39,0,.21,0,.43,0,.64Z"/>
      <path class="cls-1" d="M4.89.89c-.2,0-.39,0-.59,0-.27,0-.47-.19-.47-.44,0-.25.2-.45.47-.45.4,0,.81,0,1.21,0,.27,0,.47.19.47.44,0,.25-.2.45-.48.45-.2,0-.41,0-.61,0Z"/>
      <path class="cls-1" d="M11.61.89c-.2,0-.4,0-.6,0-.27,0-.47-.19-.47-.44,0-.25.2-.44.46-.44.41,0,.82,0,1.23,0,.26,0,.46.2.46.44,0,.25-.2.44-.47.44-.1,0-.2,0-.3,0s-.2,0-.3,0Z"/>
      <path class="cls-1" d="M18.32.89c-.2,0-.4,0-.6,0-.27,0-.47-.19-.47-.44,0-.25.2-.44.47-.45.4,0,.81,0,1.21,0,.27,0,.47.19.47.44,0,.26-.2.45-.48.45-.2,0-.4,0-.6,0Z"/>
      <path class="cls-1" d="M22.16,13.92c0,.2,0,.41,0,.61,0,.25-.18.44-.41.46-.24.02-.44-.15-.46-.4-.02-.18,0-.36-.01-.55,0-.25,0-.49,0-.74,0-.21.12-.37.31-.43.17-.06.37-.01.47.14.06.08.1.19.1.29.02.21,0,.42,0,.63Z"/>
      <path class="cls-1" d="M22.16,17.26c0,.2,0,.41,0,.61,0,.26-.18.46-.42.47-.25,0-.46-.17-.46-.44,0-.42,0-.85,0-1.27,0-.26.21-.44.45-.44.25,0,.43.2.43.47,0,0,0,.01,0,.02,0,.19,0,.39,0,.58Z"/>
      <path class="cls-1" d="M13.64,21.1c-.1,0-.21,0-.31,0-.25,0-.45-.18-.46-.42,0-.25.17-.45.43-.46.23-.01.46-.01.69,0,.26.01.44.21.43.46,0,.24-.2.43-.46.43-.1,0-.21,0-.31,0Z"/>
      <path class="cls-1" d="M1.95,8.55c0,.1,0,.2,0,.3,0,.26-.18.46-.44.46-.24,0-.44-.19-.45-.45,0-.21,0-.43,0-.64,0-.26.2-.46.44-.46.25,0,.44.2.44.47,0,.1,0,.21,0,.31Z"/>
    </g>
  </g>
</svg>