<?xml version="1.0" encoding="UTF-8"?>
<svg id="Livello_2" data-name="Livello 2" xmlns="http://www.w3.org/2000/svg" viewBox="0 0 21.3 19.88">
  <defs>
    <style>
      .cls-1 {
        stroke-width: 0px;
      }
    </style>
  </defs>
  <g id="Livello_1-2" data-name="Livello 1">
    <g>
      <path class="cls-1" d="M21.3,19.88H0V0h21.3v19.88ZM19.94,10.58h-6.64v-1.35h6.61V1.33h-11.21v2.43h-1.34V1.33H1.4v7.89h6v-2.44h1.26v6.3h-1.3v-2.43H1.38v7.87h6.02v-2.41h1.33v2.4h11.21v-7.94Z"/>
      <path class="cls-1" d="M13.29,12.33v-.89h1.25c.01.3.03.56.04.89h-1.3Z"/>
      <path class="cls-1" d="M13.29,14.13v-.89h1.25c.01.3.03.56.04.89h-1.3Z"/>
      <path class="cls-1" d="M13.29,15.92v-.89h1.25c.01.3.03.56.04.89h-1.3Z"/>
      <path class="cls-1" d="M14.53,17.76h-1.23v-.92h1.23v.92Z"/>
    </g>
  </g>
</svg>