<?xml version="1.0" encoding="UTF-8"?>
<svg id="Livello_2" data-name="Livello 2" xmlns="http://www.w3.org/2000/svg" viewBox="0 0 23.73 21.1">
  <defs>
    <style>
      .cls-1 {
        stroke-width: 0px;
      }
    </style>
  </defs>
  <g id="Livello_1-2" data-name="Livello 1">
    <g>
      <path class="cls-1" d="M23.73,7.19c-.04.08-.07.16-.11.24-.26.54-.71.76-1.29.77-1.14,0-2.29,0-3.43,0-.09,0-.18,0-.3,0v.53c.07,0,.15.01.23.01.92,0,1.84,0,2.76,0,.74,0,1.11.37,1.11,1.11,0,.71.05,1.42-.18,2.11-.43,1.31-1.31,2.17-2.64,2.55-.18.05-.24.11-.24.31.01.6,0,1.2,0,1.81,0,.57-.19,1.07-.61,1.48-.39.39-.95.38-1.34,0-.41-.41-.59-.91-.6-1.48,0-.62,0-1.24,0-1.85,0-.14-.04-.19-.18-.23-1.58-.4-2.76-1.79-2.84-3.43-.03-.52-.03-1.05,0-1.57.03-.45.39-.77.84-.78.8-.02,1.61-.01,2.41-.02.09,0,.18,0,.29,0v-.55c-.09,0-.17,0-.25,0-.97,0-1.93,0-2.9,0-.94,0-1.46-.52-1.46-1.46,0-1.77.02-3.54,0-5.3C13,.59,13.63,0,14.44,0c2.56.02,5.11.03,7.67,0,.8,0,1.36.25,1.62,1.03v6.16ZM18.58,7.24c.09,0,.15.01.21.01,1.17,0,2.35,0,3.52,0,.38,0,.49-.12.49-.5,0-1.77,0-3.54,0-5.3,0-.39-.12-.51-.51-.51-2.61,0-5.22,0-7.83,0-.38,0-.5.12-.5.5,0,1.78,0,3.55,0,5.33,0,.38.11.49.5.49.98,0,1.96,0,2.94,0,.07,0,.15,0,.25-.01,0-.1,0-.18,0-.27,0-.4,0-.8.01-1.2.03-.69.54-1.2,1.28-1.3.59-.08,1.26.35,1.41.96.09.35.07.73.09,1.1.01.33-.19.55-.46.55-.27,0-.46-.21-.47-.55,0-.25,0-.49-.03-.74-.03-.27-.21-.39-.46-.38-.24.01-.42.18-.43.43-.01.45,0,.91,0,1.39ZM21.71,11.33h-6.65c0,.06,0,.12.02.17.05.18.1.36.18.52.51,1.03,1.3,1.67,2.5,1.66.41,0,.82-.02,1.23,0,.72.04,1.31-.23,1.83-.69.49-.44.79-.99.9-1.66ZM21.74,9.71h-6.71v.67h6.71v-.67ZM18.07,14.62c0,.78-.02,1.53.01,2.29,0,.19.16.37.26.58.28-.27.37-.46.38-.81,0-.65,0-1.3,0-1.95,0-.04-.02-.07-.03-.11h-.62Z"/>
      <path class="cls-1" d="M4.2,12.25h.5c0-.08.01-.14.02-.21.04-.66.48-1.12,1.14-1.13,1.91-.01,3.82-.01,5.72,0,.63,0,1.06.43,1.13,1.06,0,.08.02.17.03.26.07.02.13.04.2.05.63.11.94.79.56,1.3-.3.4-.64.77-1,1.12-.67.67-1.41,1.25-2.24,1.71-.05.03-.09.06-.14.09.17.62.45,1.18.89,1.63.56.57.95,1.17.84,2.03.12,0,.2,0,.28,0,.58,0,1.16,0,1.74,0,.28,0,.48.2.49.46,0,.25-.2.46-.47.47-.06,0-.12,0-.19,0-4.34,0-8.68,0-13.02,0-.05,0-.11,0-.16,0C.2,21.09,0,20.91,0,20.64c0-.27.2-.46.5-.46.46,0,.93,0,1.39,0,.08,0,.17,0,.27,0,.02-.25.03-.49.06-.72.1-1.02.33-2,.63-2.98.08-.26.07-.51-.13-.71-.09-.1-.23-.15-.34-.22-.39-.27-.8-.52-1.17-.81-.24-.18-.32-.45-.32-.76,0-3.78,0-7.57,0-11.35,0-.57.36-.94.92-.93.48,0,.97-.03,1.43.07.92.2,1.53.99,1.54,1.95.01,2.32,0,4.65,0,6.97,0,.57-.19,1.09-.56,1.58ZM3.1,20.15h7.79v-.55c-.39,0-.75,0-1.11,0-.11,0-.24,0-.34-.05-.2-.08-.3-.25-.28-.46.02-.21.13-.37.35-.4.21-.03.42-.04.66-.06-.03-.06-.05-.09-.08-.13-.36-.47-.62-.99-.81-1.55-.21-.63-.06-.99.49-1.34.56-.36,1.12-.74,1.63-1.17.43-.35.8-.78,1.24-1.22H1.81c0,.19.02.37,0,.54-.02.2.05.34.22.45.32.2.64.4.97.58.61.33.95,1.01.81,1.69-.07.32-.18.64-.26.96-.1.39-.18.79-.28,1.21.13,0,.21,0,.29,0,.74,0,1.48,0,2.22,0,.31,0,.5.12.57.34.1.34-.14.61-.56.61-.8,0-1.59,0-2.39,0-.08,0-.16,0-.26,0-.02.2-.03.37-.04.55ZM1.82,4.74v7.54c.27-.02.54,0,.79-.07.79-.21,1.23-.81,1.23-1.68,0-1.86,0-3.72,0-5.58,0-.07,0-.13-.01-.2H1.82ZM5.67,12.24h6.09c.04-.34,0-.39-.31-.39-1.82,0-3.64,0-5.46,0-.31,0-.35.05-.32.39ZM3.83,3.77c-.03-.6-.31-1.02-.8-1.11-.39-.07-.8-.05-1.21-.07v1.18h2.01Z"/>
      <path class="cls-1" d="M18.38,1.6c.16.13.31.2.4.33.12.18.06.37-.07.53-.29.34-.58.69-.86,1.03-.5.59-.99,1.18-1.49,1.77-.26.31-.66.28-.82-.05-.11-.22-.02-.4.12-.57.57-.68,1.14-1.36,1.72-2.04.2-.24.39-.48.6-.7.1-.11.25-.18.42-.3Z"/>
      <path class="cls-1" d="M7.76,18.66c.25,0,.47.23.47.48,0,.24-.23.46-.47.46-.25,0-.47-.23-.47-.48,0-.24.23-.46.47-.46Z"/>
    </g>
  </g>
</svg>